<svg width="985" height="324" viewBox="0 0 985 324" fill="none" xmlns="http://www.w3.org/2000/svg">
<path d="M414.448 141.896C407.877 141.896 401.989 140.829 396.784 138.696C391.579 136.563 387.397 133.405 384.24 129.224C381.168 125.043 379.547 120.008 379.376 114.12H402.672C403.013 117.448 404.165 120.008 406.128 121.8C408.091 123.507 410.651 124.36 413.808 124.36C417.051 124.36 419.611 123.635 421.488 122.184C423.365 120.648 424.304 118.557 424.304 115.912C424.304 113.693 423.536 111.859 422 110.408C420.549 108.957 418.715 107.763 416.496 106.824C414.363 105.885 411.291 104.819 407.28 103.624C401.477 101.832 396.741 100.04 393.072 98.248C389.403 96.456 386.245 93.8107 383.6 90.312C380.955 86.8133 379.632 82.248 379.632 76.616C379.632 68.2533 382.661 61.7253 388.72 57.032C394.779 52.2533 402.672 49.864 412.4 49.864C422.299 49.864 430.277 52.2533 436.336 57.032C442.395 61.7253 445.637 68.296 446.064 76.744H422.384C422.213 73.8427 421.147 71.5813 419.184 69.96C417.221 68.2533 414.704 67.4 411.632 67.4C408.987 67.4 406.853 68.1253 405.232 69.576C403.611 70.9413 402.8 72.9467 402.8 75.592C402.8 78.4933 404.165 80.7547 406.896 82.376C409.627 83.9973 413.893 85.7467 419.696 87.624C425.499 89.5867 430.192 91.464 433.776 93.256C437.445 95.048 440.603 97.6507 443.248 101.064C445.893 104.477 447.216 108.872 447.216 114.248C447.216 119.368 445.893 124.019 443.248 128.2C440.688 132.381 436.933 135.709 431.984 138.184C427.035 140.659 421.189 141.896 414.448 141.896ZM482.574 51.144V141H460.686V51.144H482.574ZM566.916 80.072C566.916 85.2773 565.721 90.056 563.332 94.408C560.943 98.6747 557.273 102.131 552.324 104.776C547.375 107.421 541.231 108.744 533.892 108.744H520.324V141H498.436V51.144H533.892C541.06 51.144 547.119 52.3813 552.068 54.856C557.017 57.3307 560.729 60.744 563.204 65.096C565.679 69.448 566.916 74.44 566.916 80.072ZM532.228 91.336C536.409 91.336 539.524 90.3547 541.572 88.392C543.62 86.4293 544.644 83.656 544.644 80.072C544.644 76.488 543.62 73.7147 541.572 71.752C539.524 69.7893 536.409 68.808 532.228 68.808H520.324V91.336H532.228ZM600.199 68.68V86.856H629.511V103.752H600.199V123.464H633.351V141H578.311V51.144H633.351V68.68H600.199ZM727.945 141H706.057L669.449 85.576V141H647.561V51.144H669.449L706.057 106.824V51.144H727.945V141ZM808.451 51.144V68.68H784.643V141H762.755V68.68H738.947V51.144H808.451ZM875.372 125.128H841.836L836.46 141H813.548L846.06 51.144H871.404L903.916 141H880.748L875.372 125.128ZM869.74 108.232L858.604 75.336L847.596 108.232H869.74ZM946.323 141.896C939.752 141.896 933.864 140.829 928.659 138.696C923.454 136.563 919.272 133.405 916.115 129.224C913.043 125.043 911.422 120.008 911.251 114.12H934.547C934.888 117.448 936.04 120.008 938.003 121.8C939.966 123.507 942.526 124.36 945.683 124.36C948.926 124.36 951.486 123.635 953.363 122.184C955.24 120.648 956.179 118.557 956.179 115.912C956.179 113.693 955.411 111.859 953.875 110.408C952.424 108.957 950.59 107.763 948.371 106.824C946.238 105.885 943.166 104.819 939.155 103.624C933.352 101.832 928.616 100.04 924.947 98.248C921.278 96.456 918.12 93.8107 915.475 90.312C912.83 86.8133 911.507 82.248 911.507 76.616C911.507 68.2533 914.536 61.7253 920.595 57.032C926.654 52.2533 934.547 49.864 944.275 49.864C954.174 49.864 962.152 52.2533 968.211 57.032C974.27 61.7253 977.512 68.296 977.939 76.744H954.259C954.088 73.8427 953.022 71.5813 951.059 69.96C949.096 68.2533 946.579 67.4 943.507 67.4C940.862 67.4 938.728 68.1253 937.107 69.576C935.486 70.9413 934.675 72.9467 934.675 75.592C934.675 78.4933 936.04 80.7547 938.771 82.376C941.502 83.9973 945.768 85.7467 951.571 87.624C957.374 89.5867 962.067 91.464 965.651 93.256C969.32 95.048 972.478 97.6507 975.123 101.064C977.768 104.477 979.091 108.872 979.091 114.248C979.091 119.368 977.768 124.019 975.123 128.2C972.563 132.381 968.808 135.709 963.859 138.184C958.91 140.659 953.064 141.896 946.323 141.896Z" fill="#FEFEFE"/>
<path d="M434.032 273L403.824 233.32V273H381.936V183.144H403.824V222.568L433.776 183.144H459.504L424.688 227.176L460.784 273H434.032ZM492.69 183.144V236.904C492.69 242.28 494.013 246.419 496.658 249.32C499.303 252.221 503.186 253.672 508.306 253.672C513.426 253.672 517.351 252.221 520.082 249.32C522.813 246.419 524.178 242.28 524.178 236.904V183.144H546.066V236.776C546.066 244.797 544.359 251.581 540.946 257.128C537.533 262.675 532.925 266.856 527.122 269.672C521.405 272.488 515.005 273.896 507.922 273.896C500.839 273.896 494.482 272.531 488.85 269.8C483.303 266.984 478.909 262.803 475.666 257.256C472.423 251.624 470.802 244.797 470.802 236.776V183.144H492.69ZM663.196 183.144V273H641.308V219.112L621.212 273H603.548L583.324 218.984V273H561.436V183.144H587.292L612.508 245.352L637.468 183.144H663.196ZM700.824 183.144V273H678.936V183.144H700.824ZM749.198 273.896C742.627 273.896 736.739 272.829 731.534 270.696C726.329 268.563 722.147 265.405 718.99 261.224C715.918 257.043 714.297 252.008 714.126 246.12H737.422C737.763 249.448 738.915 252.008 740.878 253.8C742.841 255.507 745.401 256.36 748.558 256.36C751.801 256.36 754.361 255.635 756.238 254.184C758.115 252.648 759.054 250.557 759.054 247.912C759.054 245.693 758.286 243.859 756.75 242.408C755.299 240.957 753.465 239.763 751.246 238.824C749.113 237.885 746.041 236.819 742.03 235.624C736.227 233.832 731.491 232.04 727.822 230.248C724.153 228.456 720.995 225.811 718.35 222.312C715.705 218.813 714.382 214.248 714.382 208.616C714.382 200.253 717.411 193.725 723.47 189.032C729.529 184.253 737.422 181.864 747.15 181.864C757.049 181.864 765.027 184.253 771.086 189.032C777.145 193.725 780.387 200.296 780.814 208.744H757.134C756.963 205.843 755.897 203.581 753.934 201.96C751.971 200.253 749.454 199.4 746.382 199.4C743.737 199.4 741.603 200.125 739.982 201.576C738.361 202.941 737.55 204.947 737.55 207.592C737.55 210.493 738.915 212.755 741.646 214.376C744.377 215.997 748.643 217.747 754.446 219.624C760.249 221.587 764.942 223.464 768.526 225.256C772.195 227.048 775.353 229.651 777.998 233.064C780.643 236.477 781.966 240.872 781.966 246.248C781.966 251.368 780.643 256.019 777.998 260.2C775.438 264.381 771.683 267.709 766.734 270.184C761.785 272.659 755.939 273.896 749.198 273.896Z" fill="#FEFEFE"/>
<g clip-path="url(#clip0_1247_14)">
<path fill-rule="evenodd" clip-rule="evenodd" d="M30.6 139.6C32.4 139.6 32.4 127 32.4 125.2C34.2 125.2 36 132.4 36 134.2C41.4 152.2 46.8 179.2 66.6 182.8C81 188.2 91.8 179.2 100.8 173.8C109.8 168.4 118.8 161.2 129.6 164.8C131.4 166.6 133.2 166.6 135 166.6C135 166.6 136.8 166.6 138.6 164.8C142.2 163 147.6 163 153 164.8C158.4 168.4 162 172 167.4 173.8C174.6 181 187.2 188.2 201.6 184.6C219.6 179.2 225 157.6 228.6 143.2C230.4 136 234 130.6 234 125.2C235.8 127 235.8 130.6 235.8 132.4L237.6 139.6L259.2 101.8C262.8 96.4 266.4 87.4 268.2 80.2C268.2 73 264.6 65.8 259.2 60.4L255.6 56.8C253.8 55 252 55 252 53.2C246.6 49.6 237.6 44.2 232.2 42.4C225 38.8 216 38.8 208.8 42.4C201.6 46 198 53.2 194.4 58.6C192.6 62.2 190.8 65.8 189 67.6C189 69.4 189 69.4 190.8 69.4C190.8 71.2 190.8 71.2 192.6 73C194.4 76.6 196.2 82 194.4 87.4C194.4 94.6 189 100 183.6 101.8C163.8 118 124.2 118 100.8 107.2C91.8 103.6 82.8 96.4 81 87.4C81 82 81 80.2 82.8 76.6L68.4 51.4C68.4 49.6 68.4 49.6 66.6 47.8C64.8 44.2 61.2 42.4 55.8 40.6C45 37 32.4 42.4 25.2 47.8C25.2 47.8 23.4 47.8 23.4 49.6C12.6 55 0 64 0 76.6V80.2C0 89.2 5.4 98.2 10.8 105.4C10.8 107.2 12.6 109 14.4 110.8L30.6 139.6ZM180 130.6V132.4C178.2 134.2 178.2 137.8 174.6 136C172.8 136 171 136 171 134.2L180 130.6ZM109.8 139.6H108C108 139.6 108 139.6 106.2 139.6L99 136C97.2 134.2 93.6 132.4 90 130.6C86.4 146.8 106.2 150.4 109.8 139.6ZM156.6 139.6C160.2 146.8 171 146.8 174.6 139.6C172.8 139.6 171 139.6 167.4 136L156.6 139.6ZM183.6 128.8C183.6 132.4 183.6 132.4 183.6 136C181.8 141.4 178.2 146.8 172.8 148.6C169.2 150.4 163.8 150.4 160.2 150.4C156.6 148.6 153 145 151.2 141.4C149.4 143.2 145.8 145 144 145C147.6 159.4 162 164.8 176.4 159.4C181.8 157.6 187.2 154 189 146.8C190.8 143.2 194.4 130.6 190.8 125.2L183.6 128.8ZM120.6 146.8C118.8 145 117 143.2 113.4 143.2V145C104.4 155.8 88.2 152.2 84.6 141.4C81 136 81 132.4 82.8 127L75.6 123.4C73.8 127 73.8 128.8 73.8 134.2C73.8 137.8 73.8 141.4 75.6 145C82.8 168.4 115.2 168.4 120.6 146.8ZM140.4 132.4C140.4 134.2 142.2 139.6 144 141.4L190.8 121.6L187.2 116.2C185.4 116.2 142.2 132.4 140.4 132.4ZM124.2 143.2L127.8 132.4C111.6 123.4 99 112.6 86.4 103.6C84.6 101.8 81 100 77.4 100C73.8 101.8 72 103.6 70.2 105.4C68.4 107.2 68.4 112.6 70.2 116.2C70.2 116.2 75.6 119.8 77.4 119.8C82.8 121.6 122.4 143.2 124.2 143.2ZM75.6 217L93.6 249.4C100.8 260.2 106.2 269.2 118.8 274.6C133.2 280 145.8 278.2 156.6 269.2C162 267.4 160.2 267.4 163.8 263.8C167.4 260.2 171 253 172.8 249.4C174.6 247.6 178.2 242.2 178.2 240.4C178.2 249.4 178.2 254.8 180 262C181.8 269.2 187.2 272.8 190.8 276.4C194.4 280 201.6 281.8 208.8 281.8H210.6H275.4C277.2 281.8 279 281.8 279 281.8C282.6 281.8 286.2 280 288 280C291.6 278.2 293.4 276.4 295.2 274.6C307.8 263.8 306 254.8 306 236.8C306 226 306 173.8 306 166.6C304.2 154 295.2 143.2 284.4 141.4C277.2 139.6 268.2 139.6 261 139.6C253.8 139.6 244.8 139.6 237.6 139.6C235.8 146.8 244.8 168.4 234 188.2C230.4 195.4 230.4 195.4 226.8 199L239.4 220.6C239.4 217 241.2 215.2 243 213.4L259.2 179.2C262.8 175.6 264.6 170.2 270 170.2C275.4 168.4 280.8 172 284.4 173.8C288 177.4 291.6 181 288 188.2C286.2 193.6 262.8 233.2 259.2 238.6C257.4 244 253.8 247.6 252 253C246.6 262 232.2 262 226.8 253C223.2 247.6 205.2 215.2 203.4 213.4C196.2 215.2 196.2 217 185.4 218.8C172.8 220.6 158.4 218.8 147.6 213.4C140.4 209.8 138.6 208 133.2 204.4C127.8 209.8 118.8 215.2 109.8 217C99 218.8 90 218.8 79.2 218.8C79.2 217 77.4 217 75.6 217ZM120.6 226C122.4 226 129.6 229.6 129.6 231.4C133.2 231.4 131.4 231.4 133.2 235C133.2 236.8 133.2 240.4 135 242.2C135 240.4 135 236.8 135 235C135 235 135 233.2 136.8 231.4C136.8 231.4 140.4 229.6 142.2 227.8C144 227.8 147.6 226 147.6 226C144 224.2 138.6 224.2 135 222.4C131.4 222.4 124.2 224.2 120.6 226ZM135 175.6C131.4 173.8 133.2 173.8 129.6 172C126 170.2 124.2 170.2 120.6 170.2C115.2 172 109.8 175.6 108 177.4C99 182.8 90 190 79.2 190C55.8 193.6 43.2 175.6 36 155.8V154C34.2 166.6 36 179.2 41.4 190C54 209.8 82.8 215.2 106.2 211.6C111.6 211.6 117 208 122.4 206.2C124.2 204.4 126 202.6 127.8 200.8C129.6 200.8 131.4 199 131.4 199C133.2 197.2 133.2 197.2 133.2 195.4C135 195.4 135 197.2 136.8 199C140.4 202.6 140.4 202.6 145.8 206.2C162 215.2 183.6 215.2 201.6 208C212.4 204.4 219.6 199 226.8 190C228.6 184.6 232.2 179.2 232.2 173.8C234 170.2 234 155.8 232.2 152.2C230.4 163 223.2 175.6 217.8 179.2C216 182.8 212.4 186.4 207 188.2C201.6 190 194.4 191.8 189 190C171 188.2 160.2 173.8 147.6 170.2C144 170.2 138.6 170.2 136.8 173.8C135 173.8 135 175.6 135 175.6ZM135 26.2C127.8 26.2 118.8 28 113.4 31.6C91.8 44.2 113.4 62.2 144 58.6C151.2 58.6 160.2 56.8 165.6 55C187.2 42.4 165.6 24.4 135 26.2ZM106.2 56.8C106.2 60.4 106.2 78.4 108 80.2C115.2 96.4 151.2 98.2 167.4 85.6C171 82 172.8 80.2 172.8 74.8C172.8 67.6 172.8 62.2 172.8 55C172.8 56.8 171 56.8 169.2 58.6C156.6 65.8 136.8 67.6 122.4 64C117 62.2 113.4 60.4 109.8 58.6C108 58.6 108 56.8 106.2 56.8ZM138.6 109C153 109 169.2 105.4 180 98.2C187.2 92.8 194.4 83.8 185.4 74.8C185.4 73 181.8 69.4 180 67.6C180 74.8 180 78.4 176.4 83.8C174.6 87.4 171 91 167.4 92.8C160.2 96.4 149.4 100 138.6 100C126 100 108 96.4 102.6 83.8C100.8 80.2 100.8 71.2 100.8 65.8C99 67.6 93.6 71.2 93.6 71.2C84.6 80.2 86.4 91 95.4 98.2C106.2 105.4 122.4 109 138.6 109Z" fill="#FEFEFE"/>
</g>
<defs>
<clipPath id="clip0_1247_14">
<rect width="306" height="256" fill="white" transform="translate(0 26)"/>
</clipPath>
</defs>
</svg>
