<?xml version="1.0" encoding="UTF-8"?>
<!DOCTYPE svg PUBLIC "-//W3C//DTD SVG 1.1//EN" "http://www.w3.org/Graphics/SVG/1.1/DTD/svg11.dtd">
<!-- Creator: CorelDRAW X7 -->
<svg xmlns="http://www.w3.org/2000/svg" xml:space="preserve" width="306px" height="256px" version="1.1" style="shape-rendering:geometricPrecision; text-rendering:geometricPrecision; image-rendering:optimizeQuality; fill-rule:evenodd; clip-rule:evenodd"
viewBox="0 0 170 142"
 xmlns:xlink="http://www.w3.org/1999/xlink">
 <defs>
  <style type="text/css">
   <![CDATA[
    .fil0 {fill:#FEFEFE}
   ]]>
  </style>
 </defs>
 <g id="Layer_x0020_1">
  <metadata id="CorelCorpID_0Corel-Layer"/>
  <path class="fil0" d="M17 63c1,0 1,-7 1,-8 1,0 2,4 2,5 3,10 6,25 17,27 8,3 14,-2 19,-5 5,-3 10,-7 16,-5 1,1 2,1 3,1 0,0 1,0 2,-1 2,-1 5,-1 8,0 3,2 5,4 8,5 4,4 11,8 19,6 10,-3 13,-15 15,-23 1,-4 3,-7 3,-10 1,1 1,3 1,4l1 4 12 -21c2,-3 4,-8 5,-12 0,-4 -2,-8 -5,-11l-2 -2c-1,-1 -2,-1 -2,-2 -3,-2 -8,-5 -11,-6 -4,-2 -9,-2 -13,0 -4,2 -6,6 -8,9 -1,2 -2,4 -3,5 0,1 0,1 1,1 0,1 0,1 1,2 1,2 2,5 1,8 0,4 -3,7 -6,8 -11,9 -33,9 -46,3 -5,-2 -10,-6 -11,-11 0,-3 0,-4 1,-6l-8 -14c0,-1 0,-1 -1,-2 -1,-2 -3,-3 -6,-4 -6,-2 -13,1 -17,4 0,0 -1,0 -1,1 -6,3 -13,8 -13,15l0 2c0,5 3,10 6,14 0,1 1,2 2,3l9 16zm83 -5c0,0 0,1 0,1 -1,1 -1,3 -3,2 -1,0 -2,0 -2,-1l5 -2zm-39 5l-1 0c0,0 0,0 -1,0l-4 -2c-1,-1 -3,-2 -5,-3 -2,9 9,11 11,5zm26 0c2,4 8,4 10,0 -1,0 -2,0 -4,-2l-6 2zm15 -6c0,2 0,2 0,4 -1,3 -3,6 -6,7 -2,1 -5,1 -7,1 -2,-1 -4,-3 -5,-5 -1,1 -3,2 -4,2 2,8 10,11 18,8 3,-1 6,-3 7,-7 1,-2 3,-9 1,-12l-4 2zm-35 10c-1,-1 -2,-2 -4,-2 0,0 0,1 0,1 -5,6 -14,4 -16,-2 -2,-3 -2,-5 -1,-8l-4 -2c-1,2 -1,3 -1,6 0,2 0,4 1,6 4,13 22,13 25,1zm11 -8c0,1 1,4 2,5l26 -11 -2 -3c-1,0 -25,9 -26,9zm-9 6l2 -6c-9,-5 -16,-11 -23,-16 -1,-1 -3,-2 -5,-2 -2,1 -3,2 -4,3 -1,1 -1,4 0,6 0,0 3,2 4,2 3,1 25,13 26,13zm-27 41l10 18c4,6 7,11 14,14 8,3 15,2 21,-3 3,-1 2,-1 4,-3 2,-2 4,-6 5,-8 1,-1 3,-4 3,-5 0,5 0,8 1,12 1,4 4,6 6,8 2,2 6,3 10,3l0 0c0,0 1,0 1,0l36 0c1,0 2,0 2,0 2,0 4,-1 5,-1 2,-1 3,-2 4,-3 7,-6 6,-11 6,-21 0,-6 0,-35 0,-39 -1,-7 -6,-13 -12,-14 -4,-1 -9,-1 -13,-1 -4,0 -9,0 -13,0 -1,4 4,16 -2,27 -2,4 -2,4 -4,6l7 12c0,-2 1,-3 2,-4l9 -19c2,-2 3,-5 6,-5 3,-1 6,1 8,2 2,2 4,4 2,8 -1,3 -14,25 -16,28 -1,3 -3,5 -4,8 -3,5 -11,5 -14,0 -2,-3 -12,-21 -13,-22 -4,1 -4,2 -10,3 -7,1 -15,0 -21,-3 -4,-2 -5,-3 -8,-5 -3,3 -8,6 -13,7 -6,1 -11,1 -17,1 0,-1 -1,-1 -2,-1zm25 5c1,0 5,2 5,3 2,0 1,0 2,2 0,1 0,3 1,4 0,-1 0,-3 0,-4 0,0 0,-1 1,-2 0,0 2,-1 3,-2 1,0 3,-1 3,-1 -2,-1 -5,-1 -7,-2 -2,0 -6,1 -8,2zm8 -28c-2,-1 -1,-1 -3,-2 -2,-1 -3,-1 -5,-1 -3,1 -6,3 -7,4 -5,3 -10,7 -16,7 -13,2 -20,-8 -24,-19l0 -1c-1,7 0,14 3,20 7,11 23,14 36,12 3,0 6,-2 9,-3 1,-1 2,-2 3,-3 1,0 2,-1 2,-1 1,-1 1,-1 1,-2 1,0 1,1 2,2 2,2 2,2 5,4 9,5 21,5 31,1 6,-2 10,-5 14,-10 1,-3 3,-6 3,-9 1,-2 1,-10 0,-12 -1,6 -5,13 -8,15 -1,2 -3,4 -6,5 -3,1 -7,2 -10,1 -10,-1 -16,-9 -23,-11 -2,0 -5,0 -6,2 -1,0 -1,1 -1,1zm0 -83c-4,0 -9,1 -12,3 -12,7 0,17 17,15 4,0 9,-1 12,-2 12,-7 0,-17 -17,-16zm-16 17c0,2 0,12 1,13 4,9 24,10 33,3 2,-2 3,-3 3,-6 0,-4 0,-7 0,-11 0,1 -1,1 -2,2 -7,4 -18,5 -26,3 -3,-1 -5,-2 -7,-3 -1,0 -1,-1 -2,-1zm18 29c8,0 17,-2 23,-6 4,-3 8,-8 3,-13 0,-1 -2,-3 -3,-4 0,4 0,6 -2,9 -1,2 -3,4 -5,5 -4,2 -10,4 -16,4 -7,0 -17,-2 -20,-9 -1,-2 -1,-7 -1,-10 -1,1 -4,3 -4,3 -5,5 -4,11 1,15 6,4 15,6 24,6z"/>
 </g>
</svg>
